<?xml version="1.0" standalone="no"?>
<!DOCTYPE svg PUBLIC "-//W3C//DTD SVG 20010904//EN"
 "http://www.w3.org/TR/2001/REC-SVG-20010904/DTD/svg10.dtd">
<svg version="1.0" xmlns="http://www.w3.org/2000/svg"
 width="495.000000pt" height="505.000000pt" viewBox="0 0 495.000000 505.000000"
 preserveAspectRatio="xMidYMid meet">

<g transform="translate(0.000000,505.000000) scale(0.100000,-0.100000)"
fill="#000000" stroke="none">
<path d="M2445 4831 l-30 -7 39 -8 c21 -4 36 -9 35 -11 -2 -2 -42 -8 -89 -14
-47 -7 -98 -14 -115 -17 l-30 -5 35 30 35 30 -35 1 c-26 0 -43 -8 -70 -34
l-35 -35 -57 16 c-50 14 -60 14 -94 1 l-37 -15 52 -7 c58 -8 60 -21 3 -31 -20
-3 -75 -17 -122 -30 -46 -13 -86 -23 -87 -21 -2 1 18 17 43 35 25 18 44 35 42
37 -2 1 -21 -1 -42 -6 -24 -5 -55 -24 -81 -50 -42 -41 -42 -41 -86 -30 -36 9
-50 8 -73 -3 l-28 -15 42 -7 c23 -4 39 -9 36 -12 -5 -5 -169 -73 -216 -90 -8
-2 1 9 20 26 l35 31 -50 -20 c-27 -12 -66 -37 -86 -57 -23 -22 -38 -30 -41
-22 -5 15 -71 -22 -178 -100 -86 -63 -352 -307 -423 -389 -53 -61 -137 -175
-137 -187 0 -4 -23 -42 -52 -83 -108 -160 -218 -442 -274 -707 -39 -187 -45
-610 -9 -710 9 -27 23 -85 31 -130 37 -227 56 -320 74 -365 21 -54 94 -189
180 -335 29 -49 73 -127 97 -173 28 -52 60 -95 85 -115 22 -18 57 -57 78 -87
21 -30 60 -76 87 -102 49 -47 220 -166 326 -227 31 -18 55 -37 52 -42 -4 -5
-27 -9 -52 -9 -58 0 -240 -27 -318 -46 -33 -9 -95 -34 -138 -56 -121 -63 -144
-109 -85 -164 72 -67 137 -97 319 -144 554 -144 1689 -201 2462 -125 301 30
364 37 492 56 279 41 486 95 618 161 110 55 126 100 57 161 -76 70 -183 110
-334 127 -50 6 -127 15 -171 21 -44 5 -146 13 -227 18 -156 9 -198 21 -198 61
0 27 -5 25 -50 -13 -21 -18 -56 -43 -79 -55 -34 -19 -41 -21 -41 -8 0 20 -7
20 -34 -2 -19 -14 -21 -20 -10 -30 8 -7 24 -10 39 -6 26 6 33 -4 14 -23 -10
-10 37 -25 151 -49 14 -3 30 -7 35 -9 99 -29 148 -62 143 -97 -2 -13 -9 -22
-16 -21 -6 2 -12 -3 -12 -10 0 -11 -62 -49 -80 -49 -3 0 -21 -8 -40 -18 -30
-14 -88 -29 -175 -45 -11 -2 -20 -4 -20 -5 0 -1 -18 -3 -40 -6 -22 -2 -51 -7
-65 -10 -14 -3 -104 -14 -200 -24 -227 -23 -860 -21 -970 4 -48 11 -127 21
-183 25 -12 1 -16 5 -11 14 5 7 0 6 -11 -3 -17 -14 -18 -13 -12 3 7 18 -8 24
-18 7 -5 -8 -11 -7 -21 1 -7 6 -20 9 -28 6 -10 -4 -13 -1 -9 8 3 11 15 13 41
9 21 -3 64 -7 97 -9 33 -2 116 -6 185 -9 113 -6 153 -1 151 18 -3 18 0 18 12
2 13 -18 15 -18 39 -2 21 14 28 14 39 4 15 -14 34 -15 59 -5 8 3 94 8 190 10
96 3 186 7 200 10 14 3 43 8 65 11 37 5 159 31 197 42 10 3 27 19 40 36 12 18
17 29 11 25 -6 -4 -13 -2 -15 4 -3 9 -10 9 -26 0 -18 -10 -27 -9 -43 3 -20 13
-20 14 -2 19 33 7 -38 29 -84 25 -24 -2 -43 -2 -43 0 0 2 21 27 46 55 53 59
108 136 102 143 -3 2 -22 -18 -44 -46 -21 -27 -47 -52 -57 -55 -9 -4 -24 -19
-32 -34 -16 -32 -76 -81 -99 -81 -8 0 -19 -6 -23 -14 -4 -7 -26 -25 -47 -40
-40 -27 -93 -32 -161 -17 -29 7 -28 8 20 18 28 6 79 17 115 24 53 11 61 14 40
20 -36 10 -110 11 -110 1 0 -5 -43 -12 -96 -15 -107 -7 -265 2 -224 13 l25 7
-28 12 c-16 6 -46 11 -68 11 l-39 0 20 40 c25 49 25 58 1 36 -11 -10 -17 -24
-14 -32 3 -8 -1 -14 -11 -14 -39 0 -11 -32 57 -63 l72 -33 -119 -7 c-66 -4
-122 -4 -125 -1 -3 3 5 23 17 45 13 22 20 44 17 49 -13 21 -35 8 -61 -37 -15
-27 -29 -50 -30 -52 -2 -2 -45 17 -97 43 -52 25 -99 46 -105 46 -5 0 -12 7
-16 15 -3 8 -1 15 4 15 6 0 10 -5 10 -12 0 -6 3 -8 7 -4 12 12 -28 36 -58 36
-36 0 -40 17 -23 84 17 64 13 76 -22 76 -28 0 -32 -17 -7 -35 18 -13 10 -35
-13 -35 -19 0 -18 -14 2 -31 14 -12 14 -14 -3 -20 -11 -4 -19 -17 -20 -35 -5
-80 -28 -121 -40 -74 -3 11 -17 23 -32 26 -14 3 -51 14 -81 25 -51 18 -52 19
-15 14 22 -3 60 -8 85 -11 l45 -6 -50 27 c-111 60 -211 126 -224 147 -13 22
-13 22 10 7 150 -98 275 -167 284 -157 14 14 -16 51 -73 87 -34 22 -62 45 -62
51 0 5 -8 10 -19 10 -21 0 -96 65 -96 83 0 7 -11 11 -23 10 -24 -3 -24 -2 -26
157 -1 52 -2 55 -28 58 -32 4 -37 -13 -13 -44 19 -25 20 -84 1 -84 -10 0 -14
-10 -14 -30 1 -40 -9 -49 -21 -18 -5 14 -37 47 -72 74 -94 74 -149 125 -144
134 10 16 -20 60 -41 60 -19 0 -22 8 -30 62 -4 35 -9 90 -10 123 0 33 -2 65
-3 72 -1 14 -29 43 -42 43 -15 0 -10 -46 6 -60 11 -9 15 -32 15 -84 -1 -66 -2
-69 -15 -46 -13 23 -14 22 -9 -30 4 -50 3 -52 -8 -29 -7 14 -56 74 -108 133
-52 59 -97 112 -98 117 -3 6 7 7 22 3 29 -7 32 2 12 29 -7 9 -26 17 -43 17
l-30 0 -12 113 c-6 61 -13 133 -16 160 l-4 48 52 -70 c55 -73 75 -87 36 -25
-34 55 -7 38 55 -36 37 -43 57 -77 61 -102 8 -46 29 -66 48 -46 19 19 11 35
-52 103 -55 60 -126 152 -167 218 -21 33 -21 41 -13 208 5 96 6 207 3 247 -5
57 -3 77 8 90 8 9 20 51 27 92 6 41 16 89 21 105 19 66 30 127 25 136 -4 5
-17 1 -30 -8 -27 -21 -42 -82 -26 -111 7 -14 6 -39 -3 -88 l-13 -69 -5 50 -4
50 -8 -62 c-6 -44 -13 -63 -23 -63 -11 0 -14 -16 -12 -77 1 -43 -1 -159 -6
-258 -6 -135 -11 -173 -18 -155 -19 46 -34 75 -101 184 -36 60 -66 115 -66
122 0 7 16 18 35 25 36 14 42 24 25 49 -9 13 -13 12 -30 -9 -11 -13 -20 -18
-20 -11 0 7 -8 9 -21 5 -13 -4 -19 -3 -16 2 11 17 38 333 31 356 -9 31 6 14
41 -45 21 -35 40 -54 58 -59 36 -10 34 3 -8 71 -19 30 -40 66 -46 80 -6 14
-15 33 -20 43 -6 11 -3 36 10 75 11 31 19 80 19 107 -1 50 -1 50 -10 15 -15
-56 -30 -62 -24 -10 3 25 -3 8 -13 -38 -18 -83 -31 -113 -31 -74 0 11 -9 42
-21 69 -36 81 -57 150 -50 159 3 6 29 27 56 49 28 21 65 52 83 69 37 34 38 30
16 -43 -8 -29 -13 -56 -10 -59 3 -3 6 3 7 14 1 15 3 13 8 -6 5 -14 4 -33 -1
-42 -4 -9 -8 -25 -7 -35 0 -13 3 -11 9 7 4 14 15 39 24 55 9 18 16 54 16 88 0
49 3 60 19 64 15 4 34 31 59 86 3 5 -6 3 -18 -3 -19 -10 -22 -10 -18 1 3 8 35
87 72 176 36 89 66 170 66 180 1 17 1 17 11 1 5 -10 17 -18 26 -18 9 0 13 -6
10 -14 -8 -20 15 -37 33 -26 12 8 13 13 3 27 -7 10 -20 31 -28 46 -16 27 -15
29 14 56 17 16 32 27 34 25 5 -5 226 111 241 126 26 26 23 5 -5 -46 -18 -30
-58 -121 -90 -202 -32 -81 -63 -146 -68 -145 -5 1 -14 -10 -19 -25 -6 -15 -13
-36 -18 -46 -5 -15 -4 -17 6 -11 10 6 11 2 7 -16 -18 -64 -17 -73 3 -34 18 36
20 37 15 10 -4 -22 -3 -26 5 -15 5 8 10 29 10 47 0 37 17 80 43 106 17 17 57
99 57 117 0 5 25 64 56 132 61 133 112 196 193 238 23 11 41 22 41 25 0 5 -21
-3 -92 -34 -27 -11 -48 -19 -48 -17 0 2 12 25 26 50 36 64 24 69 -16 6 -17
-27 -36 -48 -40 -45 -5 3 -11 -3 -15 -12 -6 -20 -195 -147 -195 -132 0 18 -22
8 -51 -22 -16 -17 -29 -26 -29 -20 0 8 -10 6 -30 -4 -16 -8 -31 -15 -34 -15
-5 0 122 241 135 254 5 6 9 18 9 28 0 27 12 22 55 -22 21 -22 45 -40 51 -40
30 0 24 25 -15 64 -33 34 -39 45 -29 53 11 9 258 137 293 152 5 2 1 -9 -9 -24
-18 -27 -18 -28 0 -21 11 4 2 -8 -18 -27 -42 -39 -48 -57 -18 -57 14 0 33 19
60 63 21 34 44 68 50 75 14 16 31 16 25 -1 -7 -16 30 -38 50 -31 22 9 19 20
-12 42 l-26 19 58 22 c32 12 71 33 87 46 23 20 41 25 81 25 58 0 90 13 62 24
-32 12 -64 6 -174 -34 l-111 -39 71 87 c39 48 74 93 76 100 8 19 26 15 120
-26 82 -35 123 -42 123 -22 0 8 -33 25 -129 67 -18 8 -30 17 -27 20 7 8 279
83 284 79 1 -2 -22 -37 -53 -77 -30 -41 -55 -78 -55 -83 0 -4 -11 -17 -25 -28
-14 -11 -25 -27 -25 -36 0 -9 -7 -26 -15 -36 -12 -16 -12 -22 -2 -28 24 -15
35 -8 56 35 12 24 32 54 46 67 14 13 25 28 25 33 0 5 25 41 55 80 30 39 55 74
55 78 0 9 43 -5 153 -51 78 -32 97 -50 54 -50 -13 0 -32 -9 -42 -20 -18 -20
-17 -20 9 -20 24 0 105 54 106 71 0 7 -154 79 -170 79 -5 0 -10 4 -10 9 0 5
44 14 98 20 53 6 117 14 141 17 34 4 41 3 35 -8 -4 -7 -23 -36 -41 -65 -27
-43 -30 -52 -16 -57 8 -4 22 -1 30 5 19 16 73 98 73 111 0 18 50 2 155 -49
l100 -48 -85 -5 c-47 -4 -75 -7 -62 -8 12 -1 22 -9 22 -17 0 -17 36 -20 46 -4
5 8 32 10 85 6 63 -4 84 -10 112 -31 19 -14 47 -26 62 -26 16 0 25 -3 22 -7
-4 -3 -2 -12 4 -20 9 -10 15 -10 25 -2 21 18 17 27 -23 49 l-38 21 114 -6
c153 -8 161 -10 161 -47 0 -18 8 -37 18 -44 16 -13 15 -14 -6 -20 -16 -5 -22
-12 -19 -24 2 -10 1 -24 -4 -31 -6 -11 -9 -10 -15 4 -4 12 -17 17 -48 17 l-41
0 30 -19 c17 -10 49 -21 72 -24 50 -6 52 -2 55 91 1 40 5 59 12 55 39 -23 235
-167 232 -171 -3 -2 -28 1 -56 7 -28 6 -73 11 -100 11 -43 0 -50 -3 -50 -20 0
-11 7 -20 15 -20 8 0 15 4 15 9 0 5 17 3 38 -5 45 -16 65 -17 57 -4 -9 15 12
12 92 -11 69 -21 73 -24 83 -58 8 -29 7 -38 -5 -47 -22 -17 -19 -67 5 -82 17
-10 21 -10 27 3 6 17 -2 89 -13 118 -10 28 25 9 110 -58 58 -45 73 -61 60 -65
-14 -5 -13 -10 11 -28 15 -12 31 -22 36 -22 4 0 15 -3 24 -6 50 -19 -53 99
-155 179 l-35 27 50 -15 c27 -8 51 -12 53 -10 12 11 -51 54 -96 66 -48 12 -53
16 -63 51 -10 39 -40 78 -59 78 -10 0 -8 -16 7 -75 4 -15 -1 -13 -23 11 -36
39 -97 85 -149 112 -43 22 -32 28 24 12 32 -9 33 -9 18 13 -9 15 -38 29 -86
42 -39 11 -71 25 -71 32 0 14 -28 43 -41 43 -5 0 -9 -10 -9 -22 0 -19 -1 -20
-17 -5 -26 23 -164 87 -189 87 -45 0 -32 -16 48 -57 l83 -42 -95 5 c-52 3
-109 7 -127 10 l-32 5 15 35 c17 40 13 64 -11 64 -14 0 -26 -21 -49 -85 -5
-12 -10 -15 -14 -8 -6 10 -94 56 -172 91 -21 9 -10 11 65 12 l90 1 -24 19
c-19 17 -38 20 -117 20 -77 0 -94 3 -94 15 0 19 -39 20 -54 0 -10 -13 -16 -13
-51 0 -43 15 -72 17 -120 6z m-789 -305 c-24 -29 -58 -74 -75 -100 -28 -41
-34 -44 -47 -32 -8 8 -32 25 -54 37 -22 13 -39 28 -37 33 3 10 230 114 250
115 4 1 -12 -23 -37 -53z m-342 -75 c-12 -12 -110 -66 -103 -58 15 17 103 76
108 72 2 -3 0 -9 -5 -14z m189 -85 c1 -4 -62 -38 -141 -76 -115 -56 -140 -65
-125 -46 10 13 47 63 83 110 l65 85 58 -33 c33 -18 60 -36 60 -40z m-222 7
c-12 -16 -45 -62 -73 -103 -28 -41 -52 -77 -54 -79 -5 -6 -53 53 -54 66 0 10
182 141 198 143 2 0 -6 -12 -17 -27z m-192 -174 c18 -17 29 -34 25 -39 -15
-12 -193 -130 -198 -130 -3 0 20 33 50 73 30 39 60 84 67 100 6 15 14 27 17
27 3 0 20 -14 39 -31z m-165 -81 c-17 -28 -77 -123 -80 -127 -2 -2 -7 -2 -10
2 -6 6 82 137 92 137 3 0 2 -6 -2 -12z m166 -33 c-7 -8 -42 -73 -79 -145 l-68
-131 -32 62 c-17 33 -31 65 -29 70 4 11 200 158 212 158 5 1 3 -6 -4 -14z
m-306 -166 c-37 -39 -43 -29 -7 15 15 20 30 31 32 25 2 -6 -9 -24 -25 -40z
m66 -27 c0 -4 16 -31 35 -61 19 -29 35 -55 35 -57 0 -2 -19 -16 -42 -31 -24
-15 -69 -47 -100 -70 -31 -24 -58 -43 -60 -43 -2 0 22 53 54 118 31 64 57 125
57 135 1 16 21 26 21 9z m-113 -108 c-19 -38 -42 -90 -52 -116 -10 -27 -22
-48 -26 -48 -5 0 -9 22 -9 48 0 43 6 55 57 120 31 39 58 70 60 68 3 -2 -11
-35 -30 -72z m104 -234 c-34 -89 -61 -168 -61 -176 0 -8 -4 -14 -10 -14 -5 0
-10 9 -10 20 0 11 -13 47 -30 80 -16 33 -30 68 -30 78 0 12 32 44 84 86 46 36
89 73 96 81 27 33 19 1 -39 -155z m-216 40 c6 -33 2 -39 -50 -90 l-56 -55 40
80 c23 44 41 91 41 105 1 33 16 9 25 -40z m82 -190 l42 -89 -82 -58 c-112 -80
-111 -80 -98 -54 17 31 81 246 81 270 0 39 15 21 57 -69z m-102 63 c-4 -10
-24 -74 -45 -141 l-37 -124 -7 47 c-12 91 -8 107 40 173 47 63 62 76 49 45z
m186 -116 c-10 -9 -11 -8 -5 6 3 10 9 15 12 12 3 -3 0 -11 -7 -18z m-337 -266
c-41 -41 -44 -43 -31 -16 17 35 37 122 38 168 0 25 5 16 20 -37 l20 -70 -47
-45z m16 -136 c-11 -59 -20 -121 -20 -137 0 -15 -4 -28 -9 -28 -4 0 -11 40
-15 89 -6 88 -6 89 25 140 18 28 33 50 35 48 2 -2 -6 -52 -16 -112z m120 -39
c22 -49 38 -91 36 -93 -2 -2 -36 -24 -76 -49 -50 -31 -70 -39 -65 -27 12 32
37 207 38 263 0 54 0 54 13 25 7 -16 31 -70 54 -119z m-181 -164 c19 -60 19
-61 -3 -81 l-21 -20 0 84 c-1 46 1 82 3 81 2 -2 11 -31 21 -64z m207 -83 c-8
-57 -18 -140 -22 -184 -7 -74 -8 -77 -17 -45 -5 19 -27 80 -49 135 l-40 100
27 20 c16 11 47 34 69 51 23 17 42 30 43 29 2 -1 -3 -49 -11 -106z m-195 -159
c-2 -78 -7 -116 -11 -100 -12 39 -11 189 1 212 6 11 11 18 13 16 1 -1 0 -59
-3 -128z m106 -59 c23 -51 43 -97 43 -101 0 -4 -21 -16 -47 -26 -27 -11 -50
-20 -53 -21 -3 -2 -5 62 -5 142 0 98 3 138 9 123 5 -13 29 -65 53 -117z m57
-450 c-2 -1 -8 17 -14 40 -6 24 -26 78 -45 119 -19 42 -35 81 -35 88 0 6 15
18 34 26 18 8 37 20 42 27 6 9 11 -47 15 -141 3 -85 4 -157 3 -159z m144 103
c5 23 102 -169 102 -201 0 -13 4 -23 9 -23 12 0 25 -104 17 -127 -6 -15 -8
-15 -17 -3 -7 10 -9 -9 -5 -65 l6 -80 -19 40 c-10 22 -48 86 -85 141 -36 56
-66 104 -66 108 0 3 20 6 44 6 48 0 60 8 50 35 -6 14 -16 16 -63 10 l-57 -6
-3 121 c-1 66 -7 135 -12 153 -17 59 -9 52 44 -38 34 -58 53 -83 55 -71z
m-164 -141 l17 -33 -30 0 c-28 0 -29 3 -49 83 -12 45 -24 93 -28 107 -5 22 13
-11 90 -157z m46 -165 c7 -51 14 -99 17 -108 6 -25 -14 21 -51 113 l-34 87 27
0 c28 0 28 -1 41 -92z m93 -60 c30 -46 70 -103 88 -127 l33 -44 -28 7 c-16 4
-41 10 -57 13 -30 6 -37 22 -55 114 -4 18 -15 53 -25 77 -10 23 -16 42 -14 42
2 0 28 -37 58 -82z m161 -305 c16 -89 16 -134 1 -81 -8 27 -69 122 -101 158
l-23 25 53 -3 53 -4 17 -95z m151 -95 c59 -67 100 -118 89 -114 -10 4 -44 14
-74 22 -30 8 -59 19 -63 23 -5 5 -16 39 -26 77 -10 38 -23 79 -30 92 -6 12
-10 22 -8 22 2 0 52 -55 112 -122z m166 -249 c8 -43 11 -79 7 -79 -3 0 -10 10
-14 23 -4 12 -39 54 -79 93 l-72 71 71 -15 72 -14 15 -79z m50 84 c13 -16 12
-17 -3 -4 -10 7 -18 15 -18 17 0 8 8 3 21 -13z m-136 -127 l50 -49 -60 50
c-33 28 -69 61 -80 74 -19 23 -19 23 10 -1 16 -14 52 -47 80 -74z m285 -58
c50 -43 88 -78 84 -78 -3 0 -23 9 -43 19 -20 11 -57 22 -82 26 -62 8 -77 21
-88 77 -4 26 -16 60 -26 75 -21 31 -37 44 155 -119z m82 -114 l56 -7 7 -54 c7
-60 2 -76 -14 -44 -18 33 -59 69 -109 97 -28 15 -37 23 -22 19 14 -3 50 -8 82
-11z m180 -152 c-17 -5 -52 17 -52 34 0 12 6 11 32 -7 17 -13 26 -25 20 -27z
m331 -97 c-5 -22 3 -28 71 -62 42 -20 76 -40 76 -44 0 -8 -75 11 -142 37 -37
14 -49 24 -53 46 -8 35 0 48 29 48 19 0 22 -4 19 -25z m-228 -35 c86 -22 115
-34 115 -47 0 -17 -7 -17 -71 6 -108 38 -137 64 -44 41z m1390 -30 c23 -9 18
-12 -57 -29 -69 -16 -75 -14 -43 19 29 30 42 31 100 10z m-564 -84 c-7 -9 -25
-13 -44 -11 -18 2 -59 4 -92 6 -58 3 -57 3 25 9 47 3 93 7 104 8 15 2 16 -1 7
-12z m114 4 c15 -7 10 -9 -23 -9 -26 -1 -41 3 -37 9 7 12 32 12 60 0z"/>
<path d="M2566 4631 c-7 -11 44 -21 103 -20 l46 1 -30 13 c-34 16 -111 20
-119 6z"/>
<path d="M2910 4597 c0 -7 5 -18 12 -25 15 -15 39 3 31 24 -7 18 -43 19 -43 1z"/>
<path d="M2508 4593 c-43 -5 -70 -29 -47 -44 22 -14 30 -11 36 12 4 14 10 18
22 13 31 -14 81 -17 81 -5 0 9 -47 35 -53 29 -1 -1 -19 -3 -39 -5z"/>
<path d="M2218 4583 c-42 -6 -34 -20 15 -27 42 -6 100 5 81 16 -16 10 -68 15
-96 11z"/>
<path d="M2908 4542 c-22 -4 -23 -25 -3 -42 12 -10 16 -9 21 3 9 25 1 43 -18
39z"/>
<path d="M2427 4516 c-7 -17 18 -40 33 -31 5 3 10 15 10 26 0 23 -35 27 -43 5z"/>
<path d="M2656 4515 c-3 -9 1 -18 10 -22 19 -7 39 11 30 26 -10 16 -33 13 -40
-4z"/>
<path d="M2051 4491 c-19 -12 13 -29 45 -23 19 3 22 7 13 18 -13 16 -37 18
-58 5z"/>
<path d="M2883 4465 c-27 -19 -29 -31 -6 -39 21 -9 36 6 31 33 -3 20 -4 21
-25 6z"/>
<path d="M2742 4448 c6 -18 52 -32 74 -24 18 7 18 8 0 22 -25 18 -79 19 -74 2z"/>
<path d="M2207 4413 c-14 -13 -6 -33 12 -33 25 0 38 20 20 31 -17 11 -24 11
-32 2z"/>
<path d="M3016 4404 c-21 -21 -20 -24 9 -24 18 0 25 5 25 20 0 24 -13 26 -34
4z"/>
<path d="M3090 4412 c0 -13 47 -32 78 -32 l27 0 -25 20 c-25 20 -80 28 -80 12z"/>
<path d="M2383 4400 c-13 -5 -23 -16 -23 -25 0 -22 37 -19 50 4 17 34 13 37
-27 21z"/>
<path d="M2692 4382 c-9 -6 -5 -12 13 -20 50 -23 91 -7 46 18 -23 12 -41 13
-59 2z"/>
<path d="M2252 4373 c-20 -8 6 -33 34 -33 27 0 33 24 8 34 -18 7 -23 7 -42 -1z"/>
<path d="M2572 4358 c-19 -19 -14 -30 10 -26 13 2 24 11 26 21 4 20 -18 23
-36 5z"/>
<path d="M3387 4340 c-7 -28 18 -46 38 -27 13 14 13 17 -1 31 -21 21 -31 20
-37 -4z"/>
<path d="M2838 4323 c-22 -5 -23 -26 -3 -43 18 -15 20 -13 29 17 8 24 0 31
-26 26z"/>
<path d="M3310 4320 c0 -5 -7 -7 -15 -4 -20 8 -20 -23 1 -44 15 -14 15 -16 -5
-24 -27 -9 -27 -34 -1 -41 25 -6 26 -4 35 66 5 39 4 57 -4 57 -6 0 -11 -4 -11
-10z"/>
<path d="M2981 4302 c-15 -27 10 -50 29 -27 11 13 11 19 -2 32 -15 14 -17 13
-27 -5z"/>
<path d="M2240 4300 c-13 -9 -13 -11 0 -20 19 -13 60 -13 60 0 0 5 -9 14 -19
20 -24 12 -22 12 -41 0z"/>
<path d="M2115 4260 c-10 -11 -15 -23 -12 -27 11 -10 57 15 57 32 0 21 -24 19
-45 -5z"/>
<path d="M1858 4249 c-16 -11 -28 -25 -28 -30 0 -18 39 -9 54 13 30 42 17 50
-26 17z"/>
<path d="M2310 4256 c0 -17 24 -38 33 -29 15 15 6 43 -13 43 -11 0 -20 -6 -20
-14z"/>
<path d="M1751 4226 c-8 -10 -6 -17 8 -30 11 -10 18 -23 16 -29 -6 -16 45 -53
54 -39 6 11 156 -105 281 -218 36 -32 146 -130 246 -218 99 -88 310 -288 469
-444 l287 -283 -53 -15 c-35 -10 -55 -22 -57 -33 -2 -9 -2 -17 0 -17 2 0 28 7
58 15 30 8 55 13 56 12 2 -2 -83 -351 -117 -481 l-10 -39 -43 42 c-23 22 -45
41 -49 41 -19 0 -3 -38 30 -72 37 -38 37 -39 15 -45 -28 -7 -24 -27 7 -31 14
-2 21 -9 17 -17 -2 -7 2 -19 10 -26 12 -10 16 -9 21 9 3 12 8 22 12 21 8 -1
325 -337 329 -348 2 -5 -13 -14 -32 -21 -25 -8 -36 -18 -36 -31 0 -11 5 -17
10 -14 6 3 10 -2 10 -12 0 -22 -109 -344 -122 -360 -5 -6 -16 -9 -24 -6 -9 3
-14 -2 -14 -15 0 -23 21 -44 35 -34 11 8 145 409 145 434 0 23 34 17 41 -7 4
-14 12 -19 30 -17 19 3 44 -18 129 -105 58 -60 96 -98 85 -84 -11 14 -55 62
-98 107 -44 45 -90 98 -103 118 -29 43 -40 36 151 101 77 26 161 57 188 70 44
21 47 21 47 4 0 -11 5 -19 10 -19 18 0 10 -34 -48 -210 -50 -151 -61 -175 -80
-178 -24 -4 -30 -30 -10 -50 6 -6 10 -13 7 -16 -7 -6 -237 -91 -326 -120 -45
-15 -87 -25 -93 -21 -6 4 -26 -3 -45 -14 -49 -29 -311 -104 -490 -141 -410
-84 -634 -124 -644 -114 -2 2 4 34 13 71 35 147 66 294 66 313 0 27 42 27 80
0 20 -14 26 -26 23 -44 -6 -29 8 -39 39 -27 22 8 21 10 -32 59 -53 50 -54 52
-35 66 19 15 18 15 -15 10 -19 -3 -51 -10 -70 -14 -19 -5 -97 -18 -174 -30
-102 -16 -141 -19 -146 -10 -8 13 -58 3 -77 -15 -15 -16 -315 -46 -328 -33 -4
3 -21 2 -38 -3 -18 -5 -63 -9 -100 -9 l-69 0 6 68 c14 143 23 298 18 312 -4
12 -2 13 9 3 7 -7 22 -13 34 -13 12 0 42 -22 73 -53 39 -41 50 -59 45 -75 -7
-30 14 -53 42 -46 18 4 32 -6 75 -55 29 -34 55 -59 58 -56 5 5 -62 80 -187
210 -32 33 -70 77 -86 99 -17 24 -30 34 -35 27 -4 -7 -20 -15 -36 -20 -32 -8
-47 -41 -19 -41 13 0 16 -6 11 -22 -3 -13 -6 -35 -6 -50 0 -18 -5 -28 -15 -28
-18 0 -20 -41 -4 -57 12 -12 9 -186 -3 -198 -4 -4 -46 -10 -93 -13 -52 -3 -81
-8 -73 -13 7 -5 28 -9 46 -9 17 0 32 -4 32 -9 0 -11 218 -3 360 13 170 20 190
18 247 -30 32 -28 48 -49 49 -65 0 -37 12 -50 38 -43 19 4 40 -9 110 -72 48
-42 89 -75 91 -72 2 2 -17 22 -43 44 -127 105 -282 258 -270 265 7 3 51 12 98
19 47 6 139 23 205 36 72 14 121 20 123 14 2 -6 10 -10 18 -10 16 0 16 5 -17
-135 -25 -101 -35 -125 -54 -125 -19 0 -20 -24 -1 -39 12 -10 12 -18 2 -49
-14 -39 -17 -40 -126 -62 -25 -5 -80 -12 -122 -16 -66 -5 -78 -8 -78 -24 0
-14 10 -19 46 -22 38 -3 44 -1 41 14 -4 14 7 17 82 23 47 3 124 10 171 14 52
5 90 4 97 -1 13 -11 73 -1 73 11 0 10 229 43 241 35 5 -3 9 0 9 6 0 6 5 8 10
5 6 -4 16 -2 23 3 7 5 28 12 47 16 41 7 83 -16 78 -42 -4 -29 10 -43 31 -30
16 10 27 5 67 -28 81 -65 165 -126 170 -121 2 2 -42 38 -98 80 -57 42 -120 92
-142 111 l-38 35 28 7 c191 43 377 95 412 113 9 5 37 12 61 16 41 7 44 6 38
-14 -6 -24 9 -37 36 -33 11 2 53 -26 105 -70 90 -77 120 -99 109 -81 -4 6 -49
45 -102 88 -52 44 -97 87 -101 97 -3 10 -10 18 -15 18 -20 0 1 18 28 24 50 12
338 118 353 130 8 7 23 11 33 8 22 -5 21 -10 -50 -177 -60 -141 -70 -158 -89
-151 -17 6 -28 -25 -12 -35 7 -4 10 -10 8 -12 -28 -23 -439 -167 -479 -167
-12 0 -12 3 1 18 17 18 127 281 135 322 10 48 -15 6 -50 -85 -60 -155 -76
-185 -97 -185 -22 0 -26 -20 -10 -36 18 -18 -21 -40 -78 -43 -7 -1 -11 -5 -7
-10 3 -5 -48 -21 -112 -36 -140 -32 -145 -33 -113 -34 14 0 95 15 180 33 85
19 157 32 159 30 2 -2 -2 -15 -9 -29 -17 -32 0 -56 24 -36 11 9 20 10 38 1 18
-9 16 -5 -9 18 l-31 30 46 9 c34 6 46 13 44 24 -2 12 25 24 110 49 62 18 146
45 186 61 67 25 72 26 67 8 -9 -27 3 -43 21 -28 7 6 20 9 27 6 9 -3 13 2 13
16 -1 17 21 31 129 80 72 32 141 69 155 82 40 37 67 47 74 30 4 -11 13 -14 29
-10 20 5 31 -2 61 -36 20 -23 36 -39 36 -35 0 5 -16 26 -36 48 -19 22 -34 44
-32 50 2 6 45 36 95 67 50 31 105 71 121 89 17 17 33 32 36 32 8 0 -30 -86
-76 -168 -48 -87 -91 -140 -153 -187 -33 -25 -222 -135 -232 -135 -4 0 5 13
20 28 37 38 128 212 125 237 -2 14 -16 -4 -45 -56 -62 -115 -111 -189 -126
-189 -7 0 -17 -10 -22 -22 -6 -13 -19 -24 -30 -26 -11 -2 -25 -9 -30 -16 -17
-22 -146 -81 -289 -132 -37 -14 -39 -13 -24 3 27 31 129 225 125 237 -2 6 -16
-14 -32 -44 -51 -101 -93 -160 -115 -160 -12 0 -20 -7 -20 -17 0 -10 -11 -26
-24 -35 -21 -15 -25 -15 -30 -3 -5 13 -9 13 -26 3 -11 -7 -20 -16 -20 -20 0
-13 38 -18 65 -8 33 13 43 6 25 -15 -18 -22 2 -44 24 -25 10 7 27 10 43 6 24
-5 26 -4 13 6 -18 15 -25 48 -11 48 5 0 13 -5 16 -10 9 -14 42 -13 51 2 4 7 0
16 -8 22 -13 8 4 18 80 46 54 21 121 49 150 64 28 14 52 24 52 21 0 -13 -101
-136 -152 -185 -32 -31 -58 -61 -58 -67 0 -6 -14 -23 -32 -38 -29 -24 -64 -75
-52 -75 13 0 84 54 84 65 0 6 18 26 40 44 33 26 43 30 60 21 14 -8 26 -8 40 0
30 16 13 33 -28 28 -35 -4 -35 -4 -13 11 29 19 122 141 116 151 -2 4 7 12 21
19 19 8 31 8 47 0 18 -9 20 -9 10 2 -17 18 -16 26 5 33 33 12 157 93 156 102
-1 10 69 65 75 59 6 -6 -89 -135 -137 -187 -25 -26 -49 -45 -54 -42 -11 7 -40
-15 -33 -26 3 -5 -29 -27 -70 -50 -41 -23 -75 -43 -75 -46 0 -4 117 49 205 94
70 35 215 144 245 183 57 76 56 73 26 54 -14 -10 -26 -21 -26 -25 0 -8 -108
-97 -140 -115 -8 -5 4 12 27 39 23 26 52 68 63 92 22 45 37 53 59 32 10 -11
11 -10 6 4 -5 13 15 39 76 100 46 46 79 77 74 69 -5 -9 -4 -12 3 -7 6 3 16 23
23 44 7 22 32 55 61 82 27 25 51 54 53 66 2 12 19 53 39 92 20 39 36 82 36 94
1 21 2 22 14 5 12 -16 14 -16 20 -1 3 8 6 28 6 43 0 16 10 43 23 62 23 35 47
84 47 97 0 4 -11 -6 -25 -23 -26 -32 -35 -24 -12 10 23 33 47 116 48 164 l1
46 13 -30 c11 -24 14 -26 16 -10 6 91 11 123 24 148 19 38 19 58 0 33 -19 -25
-19 -17 0 47 8 29 17 77 20 107 3 30 9 80 13 110 13 86 7 278 -11 335 l-16 50
0 -120 c-1 -120 -8 -134 -31 -62 -7 21 -14 37 -16 34 -2 -2 3 -26 12 -53 23
-71 25 -143 8 -283 -18 -139 -32 -194 -33 -123 -1 24 -10 75 -22 113 -12 38
-19 76 -16 83 3 8 1 16 -5 18 -8 3 -8 22 2 69 7 35 14 109 16 164 3 123 2 115
14 115 6 0 19 -19 30 -42 10 -24 19 -37 19 -29 1 19 -21 94 -31 106 -4 5 -8
17 -8 27 0 10 -3 18 -7 18 -5 0 -8 46 -8 103 -1 56 -4 119 -9 141 -6 29 -4 37
6 34 7 -3 22 -38 33 -79 18 -67 20 -71 23 -37 2 23 -9 69 -31 127 -19 50 -30
91 -26 91 5 0 9 9 9 20 0 12 -7 20 -18 20 -13 0 -21 17 -35 78 -10 45 -28 89
-42 106 l-24 30 10 -45 c5 -24 12 -52 15 -63 5 -13 3 -16 -7 -11 -9 6 -10 2
-6 -16 4 -13 10 -41 13 -61 6 -34 5 -36 -15 -31 -11 3 -21 1 -21 -5 0 -16 26
-33 43 -27 17 7 22 -31 33 -242 6 -108 5 -123 -9 -123 -23 0 -29 -16 -13 -32
7 -8 16 -32 18 -53 6 -40 -6 -236 -18 -309 -5 -34 -8 -37 -17 -21 -5 10 -10
32 -9 49 1 25 -16 64 -98 226 -17 34 -20 101 -11 229 6 89 5 145 -1 164 -8 23
-7 32 5 45 9 9 20 12 24 8 4 -4 1 -11 -6 -16 -19 -11 -6 -40 17 -40 10 0 24
-6 31 -12 17 -17 -5 40 -23 62 -32 37 -44 78 -45 165 -1 55 -11 127 -25 185
-14 55 -22 111 -19 132 6 40 -35 144 -68 174 -23 21 -23 17 -3 -52 9 -31 13
-62 10 -70 -3 -8 3 -41 13 -72 10 -31 25 -113 34 -182 26 -204 29 -250 17
-250 -13 0 -11 -70 3 -88 10 -13 1 -328 -10 -346 -3 -4 -18 14 -34 40 -16 27
-40 63 -54 79 -17 20 -13 10 12 -30 20 -33 36 -69 35 -79 0 -10 5 -28 13 -39
11 -15 11 -24 2 -39 -10 -15 -9 -20 2 -27 15 -10 12 -42 -20 -230 -11 -63 -18
-119 -16 -126 3 -6 -1 -19 -8 -28 -12 -16 -15 -13 -31 30 -10 26 -48 91 -84
143 -105 149 -121 177 -106 183 8 3 12 15 9 31 -4 21 -8 24 -24 15 -11 -5 -19
-19 -19 -31 0 -29 -23 -8 -48 45 -11 23 -67 99 -124 169 -57 70 -111 139 -121
153 -11 14 -31 31 -45 38 -37 15 -82 58 -82 77 0 17 -73 94 -81 86 -3 -3 -43
33 -89 79 -47 47 -79 85 -72 85 22 0 12 28 -20 55 -24 20 -33 23 -39 13 -6
-10 -21 -1 -56 32 -26 25 -64 59 -83 75 -32 28 -33 28 -11 3 13 -14 21 -31 17
-36 -3 -5 10 -23 28 -41 21 -20 35 -28 38 -21 5 15 326 -317 350 -361 9 -17
31 -47 48 -66 18 -19 30 -35 28 -37 -9 -6 -442 -105 -445 -102 -2 2 1 15 7 30
5 15 10 39 10 52 0 39 -32 27 -42 -16 -16 -64 -17 -64 -48 -25 -16 21 -27 42
-23 48 4 6 0 8 -11 4 -11 -4 -22 1 -33 16 -73 95 -793 777 -822 777 -4 0 -50
41 -102 90 -62 60 -100 89 -111 86 -10 -2 -18 -1 -18 3 0 4 -42 36 -94 72 -52
35 -90 67 -84 70 13 8 3 26 -22 39 -13 7 -21 6 -29 -4z m2791 -969 c-8 -16
-20 8 -26 53 l-6 45 18 -45 c10 -25 17 -49 14 -53z m-1022 8 c19 -19 32 -35
29 -35 -3 0 -20 16 -39 35 -19 19 -32 35 -29 35 3 0 20 -16 39 -35z m874 -625
l64 -125 -3 -95 c-1 -69 -11 -132 -35 -230 -31 -125 -34 -132 -42 -100 -5 19
-30 76 -55 125 -29 55 -48 105 -49 130 -1 22 -7 41 -13 43 -6 2 -9 8 -6 13 6
9 25 104 51 248 8 47 12 99 9 115 -9 44 4 24 79 -124z m-9 80 c14 -27 23 -50
21 -50 -5 0 -56 86 -56 94 0 16 12 1 35 -44z m-294 -223 c99 -146 121 -187
104 -193 -17 -7 -21 -44 -4 -44 15 0 6 -44 -46 -224 -23 -81 -37 -142 -29
-135 17 18 104 317 104 360 0 33 2 32 41 -36 41 -70 109 -200 109 -209 0 -6
-156 -108 -200 -131 -24 -12 -35 -14 -38 -6 -3 9 -8 9 -17 1 -19 -16 -65 -2
-65 20 0 10 -38 68 -85 129 -47 61 -85 115 -85 121 0 6 7 13 15 16 11 4 13 13
9 28 -9 29 -9 29 -34 16 -21 -11 -21 -11 -7 17 20 38 97 373 97 420 l0 38 36
-50 c20 -28 63 -89 95 -138z m455 -228 c9 -31 14 -66 12 -79 -2 -13 -31 -47
-67 -79 -74 -65 -72 -73 -27 104 14 55 26 125 26 155 l1 55 20 -50 c10 -27 26
-75 35 -106z m-2 -161 c-5 -45 -64 -241 -75 -253 -5 -5 -9 7 -9 32 0 22 -7 57
-15 76 -21 52 -19 60 23 92 22 16 46 42 55 57 21 36 26 35 21 -4z m-676 -18
c11 0 187 -226 198 -253 3 -9 -42 -36 -143 -84 -167 -79 -193 -89 -193 -73 0
6 -12 3 -27 -7 -26 -18 -27 -18 -18 2 26 57 134 394 134 419 1 28 2 28 19 13
10 -10 24 -17 30 -17z m477 -120 c-3 -5 -1 -10 5 -10 14 0 12 -4 -52 -182 -37
-100 -55 -138 -69 -141 -14 -4 -19 0 -19 16 0 12 -20 53 -44 92 -25 38 -43 72
-41 75 2 4 41 29 87 57 46 28 94 63 107 77 25 26 37 34 26 16z m80 -94 l26
-78 -23 -25 c-40 -44 -139 -126 -144 -121 -3 3 4 21 15 39 31 54 81 204 81
245 0 53 13 35 45 -60z m-373 -95 c15 8 22 8 28 -1 4 -7 12 -10 18 -6 9 5 103
-128 118 -167 3 -8 -30 -35 -87 -72 -153 -100 -230 -136 -186 -87 16 18 127
287 127 309 0 7 -4 13 -10 13 -5 0 -10 -8 -10 -17 0 -10 -29 -85 -63 -168 -50
-119 -67 -150 -83 -150 -14 0 -18 -7 -17 -23 2 -19 -13 -30 -115 -78 -105 -51
-269 -124 -277 -124 -2 0 8 24 22 53 50 101 125 282 128 307 4 36 5 37 16 12
7 -18 14 -22 31 -16 19 6 34 -6 96 -72 41 -44 69 -70 61 -59 -7 11 -38 47 -70
80 -92 97 -94 93 73 173 79 37 150 76 158 86 8 11 16 14 18 7 3 -8 9 -8 24 0z
m323 -174 c-26 -58 -56 -113 -67 -124 -20 -18 -21 -18 -14 4 4 13 1 34 -9 52
l-15 30 72 74 c40 40 74 72 76 71 2 -1 -18 -49 -43 -107z m-120 -197 c-51 -52
-155 -134 -155 -122 0 5 9 17 21 28 25 23 99 166 99 192 0 10 6 24 12 30 10
10 18 2 37 -38 l25 -50 -39 -40z m-355 -304 c0 -8 -111 -68 -117 -63 -3 3 21
19 53 36 65 33 64 33 64 27z"/>
<path d="M3049 4226 c15 -18 71 -27 71 -10 0 14 -23 24 -57 24 -21 0 -23 -3
-14 -14z"/>
<path d="M3500 4225 c13 -15 80 -38 89 -30 2 3 -4 14 -14 25 -22 25 -96 30
-75 5z"/>
<path d="M3944 4220 c4 -14 13 -55 21 -92 8 -37 20 -79 26 -95 6 -15 12 -54
13 -86 2 -33 8 -62 13 -65 6 -4 17 -58 24 -120 13 -116 26 -145 53 -123 13 11
12 18 -4 55 -10 24 -21 79 -25 122 -7 88 -24 180 -37 207 -10 20 -1 22 21 3
18 -15 120 -50 127 -44 12 12 -53 58 -97 69 -42 11 -49 16 -49 38 0 34 -35
103 -67 132 l-26 24 7 -25z"/>
<path d="M2801 4209 c-21 -20 -21 -22 -4 -34 21 -16 29 -10 38 28 8 32 -3 35
-34 6z"/>
<path d="M2495 4200 c-4 -7 -3 -16 2 -21 12 -12 45 0 40 15 -5 15 -34 19 -42
6z"/>
<path d="M2537 4173 c-28 -7 -1 -33 36 -33 29 0 30 0 12 20 -10 11 -21 19 -24
19 -3 -1 -14 -3 -24 -6z"/>
<path d="M1718 4153 c-9 -2 -24 -15 -32 -29 -16 -23 -15 -24 3 -24 23 0 51 25
51 46 0 8 -1 13 -2 13 -2 -1 -11 -3 -20 -6z"/>
<path d="M2263 4107 c-28 -13 -30 -42 -3 -44 14 -1 22 6 26 23 8 31 5 34 -23
21z"/>
<path d="M3365 4087 c-19 -15 -13 -37 11 -37 8 0 14 10 14 25 0 29 0 29 -25
12z"/>
<path d="M3540 4094 c0 -13 36 -33 59 -34 23 0 24 1 6 20 -17 18 -65 28 -65
14z"/>
<path d="M3729 4093 c-4 -26 5 -80 14 -91 17 -22 42 10 28 36 -6 11 -11 30
-11 41 0 19 -29 31 -31 14z"/>
<path d="M3853 4065 c27 -24 57 -33 57 -17 -1 20 -30 42 -56 42 l-29 -1 28
-24z"/>
<path d="M3145 4071 c-7 -12 27 -31 56 -31 21 0 22 1 4 20 -19 21 -50 26 -60
11z"/>
<path d="M2899 4034 c-10 -13 -10 -17 2 -24 17 -11 45 13 35 29 -10 15 -21 14
-37 -5z"/>
<path d="M3235 4009 c-8 -12 24 -51 36 -43 5 3 9 16 9 30 0 17 -5 24 -19 24
-11 0 -23 -5 -26 -11z"/>
<path d="M3340 3997 c0 -33 19 -49 36 -32 19 19 17 32 -5 45 -28 14 -31 13
-31 -13z"/>
<path d="M2672 4003 c-17 -7 4 -33 27 -33 9 0 21 -10 26 -22 13 -29 29 -29 33
-2 2 16 -7 28 -31 43 -19 11 -36 21 -38 20 -2 0 -10 -3 -17 -6z"/>
<path d="M3670 3993 c0 -11 5 -24 12 -31 9 -9 9 -12 0 -12 -7 0 -12 -9 -12
-20 0 -11 6 -20 14 -20 8 0 16 -6 19 -12 6 -18 19 54 15 83 -4 30 -48 41 -48
12z"/>
<path d="M2392 3938 c-19 -19 -14 -30 10 -26 13 2 24 11 26 21 4 20 -18 23
-36 5z"/>
<path d="M3408 3943 c-10 -2 -18 -8 -18 -13 0 -10 71 -32 79 -25 5 6 -29 46
-38 44 -3 -1 -14 -3 -23 -6z"/>
<path d="M3827 3941 c-16 -6 -17 -9 -5 -18 19 -16 68 -27 68 -16 0 10 -33 44
-41 42 -2 0 -12 -4 -22 -8z"/>
<path d="M1715 3928 c-38 -21 -45 -43 -15 -51 22 -6 44 22 38 48 -2 11 -7 11
-23 3z"/>
<path d="M3238 3929 c-22 -12 -23 -26 -3 -45 12 -13 15 -12 25 5 12 23 13 51
3 51 -5 0 -16 -5 -25 -11z"/>
<path d="M2857 3900 c-8 -30 58 -70 86 -53 9 5 -59 73 -74 73 -4 0 -9 -9 -12
-20z"/>
<path d="M4150 3903 c0 -7 -7 -13 -16 -13 -14 0 -14 -3 -3 -16 18 -21 89 -57
89 -44 0 15 -69 87 -70 73z"/>
<path d="M2699 3843 c-25 -6 -31 -40 -8 -46 19 -5 39 17 39 42 0 11 -3 12 -31
4z"/>
<path d="M1494 3829 c-3 -6 17 -35 47 -65 29 -29 51 -55 48 -57 -2 -2 -36 -15
-75 -31 -49 -18 -74 -33 -77 -46 -7 -26 -2 -25 82 9 39 16 71 27 71 25 0 -2
-29 -92 -65 -200 -35 -107 -69 -213 -75 -235 -10 -37 -30 -54 -30 -25 0 8 -21
37 -47 66 -44 49 -48 51 -56 32 -8 -18 -3 -30 29 -68 73 -86 74 -78 -11 -109
-68 -24 -108 -56 -87 -69 4 -2 41 9 82 25 41 15 75 27 77 25 2 -2 -21 -106
-52 -232 -31 -126 -58 -240 -61 -254 l-6 -25 -9 24 c-13 33 -88 126 -102 126
-29 0 -15 -45 33 -104 27 -35 50 -67 50 -70 0 -4 -30 -16 -67 -27 -56 -16 -69
-23 -71 -42 -3 -20 0 -22 25 -16 15 4 50 15 77 25 l48 18 -7 -46 c-4 -25 -9
-52 -12 -59 -3 -9 2 -14 12 -14 14 0 16 -7 10 -42 -16 -103 -18 -111 -36 -115
-21 -6 -26 -47 -8 -58 7 -5 9 -34 5 -84 -4 -62 -4 -69 4 -36 25 100 30 127 30
158 0 35 22 152 38 204 6 18 8 42 5 55 -4 21 -2 20 24 -8 25 -28 83 -52 83
-34 0 3 -13 24 -30 46 -16 21 -30 42 -30 46 0 8 84 35 285 93 72 21 136 42
143 48 15 12 16 -13 1 -68 -8 -29 -8 -40 0 -43 17 -6 13 -47 -18 -172 -17 -68
-34 -116 -42 -119 -23 -7 -29 -25 -15 -46 7 -11 12 -36 10 -55 -4 -32 -2 -31
15 15 11 28 20 64 20 82 1 41 55 273 70 300 6 12 11 39 11 59 l0 38 34 -33
c25 -24 41 -32 61 -29 l28 3 -37 44 c-20 24 -35 45 -34 46 2 2 113 33 248 70
135 37 251 72 258 77 15 13 15 5 -2 -59 -13 -47 -12 -53 1 -53 12 0 14 -8 9
-37 -5 -30 -1 -24 19 26 14 35 25 75 25 89 l0 26 33 -32 c18 -18 40 -32 50
-32 9 0 14 -6 12 -12 -7 -20 10 -39 28 -32 25 9 21 21 -28 77 -34 40 -42 54
-33 64 9 11 6 17 -10 29 -13 9 -22 26 -22 41 0 21 -2 24 -15 13 -8 -7 -15 -9
-15 -4 -1 5 -7 -2 -15 -16 -8 -14 -14 -19 -15 -11 0 8 -82 97 -182 198 -147
148 -180 186 -168 194 13 8 12 12 -8 28 -12 11 -21 25 -20 31 2 7 -7 14 -18
16 -16 2 -24 -3 -29 -19 -5 -16 -8 -18 -12 -7 -3 8 -73 84 -157 168 -118 119
-148 155 -136 162 12 8 12 11 -3 28 -9 10 -17 23 -17 28 0 5 -9 10 -20 11 -11
1 -20 -4 -20 -13 0 -23 -9 -17 -57 36 -45 50 -66 60 -79 39z"/>
<path d="M1888 3798 c-21 -21 -21 -23 -5 -26 21 -4 47 15 47 34 0 20 -17 17
-42 -8z"/>
<path d="M3692 3800 c0 -14 2 -19 5 -12 2 6 2 18 0 25 -3 6 -5 1 -5 -13z"/>
<path d="M4190 3720 c-11 -7 -11 -11 -1 -24 14 -17 51 -22 51 -8 0 18 -35 41
-50 32z"/>
<path d="M3945 3700 c18 -20 55 -28 55 -12 0 16 -24 32 -49 32 -23 0 -24 -1
-6 -20z"/>
<path d="M2113 3693 c-30 -20 -30 -45 -2 -41 21 3 45 43 31 52 -4 2 -17 -3
-29 -11z"/>
<path d="M3727 3704 c-14 -14 -7 -35 11 -32 9 2 17 10 17 17 0 16 -18 25 -28
15z"/>
<path d="M4320 3702 c0 -14 33 -39 58 -45 29 -7 29 17 0 37 -24 17 -58 21 -58
8z"/>
<path d="M3580 3681 c0 -16 30 -33 46 -27 13 5 14 9 4 21 -13 16 -50 21 -50 6z"/>
<path d="M4022 3612 c1 -36 6 -52 15 -52 10 0 13 -21 14 -82 l2 -83 8 110 c9
108 8 110 -16 134 l-24 24 1 -51z"/>
<path d="M3279 3634 c-10 -13 -10 -17 2 -25 9 -6 18 -3 26 8 22 29 -4 46 -28
17z"/>
<path d="M3640 3631 c0 -10 7 -24 15 -31 20 -17 19 -27 -5 -35 -20 -6 -28 -35
-10 -35 6 0 14 -10 19 -22 8 -21 9 -19 16 17 3 22 9 52 11 66 3 17 -1 33 -11
43 -22 21 -35 20 -35 -3z"/>
<path d="M3710 3627 c0 -34 23 -52 41 -31 15 18 2 47 -25 52 -11 3 -16 -4 -16
-21z"/>
<path d="M4360 3626 c0 -4 5 -16 10 -27 8 -15 7 -19 -5 -19 -26 0 -17 -19 23
-44 41 -27 47 -26 38 2 -7 21 -66 100 -66 88z"/>
<path d="M4134 3613 c4 -8 1 -13 -8 -13 -34 0 -10 -32 32 -43 30 -7 28 14 -5
44 -14 13 -23 18 -19 12z"/>
<path d="M1075 3591 c-9 -16 3 -31 26 -31 14 0 19 6 17 17 -4 20 -33 29 -43
14z"/>
<path d="M3767 3582 c-31 -7 -15 -37 21 -40 17 -2 32 1 32 6 0 16 -35 39 -53
34z"/>
<path d="M1231 3561 c-8 -5 -10 -14 -7 -20 8 -13 46 -15 46 -2 0 16 -25 30
-39 22z"/>
<path d="M2763 3543 c-7 -2 -13 -14 -13 -25 0 -28 34 -19 38 10 3 22 -2 25
-25 15z"/>
<path d="M3147 3486 c-26 -28 -26 -30 -10 -46 17 -16 19 -16 31 7 7 13 12 34
10 46 -3 21 -4 21 -31 -7z"/>
<path d="M3652 3445 c0 -16 2 -22 5 -12 2 9 2 23 0 30 -3 6 -5 -1 -5 -18z"/>
<path d="M888 3391 c-24 -19 -44 -61 -29 -61 14 0 51 32 46 39 -2 5 7 6 21 3
21 -4 25 -1 22 14 -5 26 -30 28 -60 5z"/>
<path d="M2200 3389 c-7 -11 -9 -24 -5 -27 9 -9 40 13 43 32 5 23 -25 20 -38
-5z"/>
<path d="M3642 3375 c0 -16 2 -22 5 -12 2 9 2 23 0 30 -3 6 -5 -1 -5 -18z"/>
<path d="M4043 3345 c0 -22 2 -30 4 -17 2 12 2 30 0 40 -3 9 -5 -1 -4 -23z"/>
<path d="M1261 3357 c-14 -17 -4 -27 26 -27 25 0 29 10 11 28 -15 15 -23 15
-37 -1z"/>
<path d="M2563 3353 c-27 -18 -29 -29 -8 -49 12 -13 15 -12 25 6 6 12 10 29 8
39 -3 17 -5 17 -25 4z"/>
<path d="M3632 3310 c0 -14 2 -19 5 -12 2 6 2 18 0 25 -3 6 -5 1 -5 -13z"/>
<path d="M4257 3324 c-11 -11 5 -34 24 -34 22 0 24 11 7 28 -13 13 -22 15 -31
6z"/>
<path d="M4046 3268 c-16 -61 11 -112 63 -120 27 -4 29 -3 19 16 -6 12 -18 29
-26 39 -9 10 -17 30 -18 45 -1 15 -3 30 -3 35 -2 17 -29 5 -35 -15z"/>
<path d="M1058 3247 c-31 -28 -44 -78 -28 -106 15 -29 29 -26 35 7 3 15 11 43
17 63 15 53 7 65 -24 36z"/>
<path d="M3960 3262 c0 -14 26 -33 33 -25 4 3 7 -3 7 -15 0 -11 5 -24 10 -27
15 -9 12 -25 -5 -25 -8 0 -15 -9 -15 -20 0 -11 6 -20 14 -20 8 0 16 -12 18
-27 3 -20 6 -10 12 29 7 48 5 64 -11 95 -18 35 -63 60 -63 35z"/>
<path d="M817 3228 c-8 -28 9 -59 28 -52 18 7 20 45 3 62 -17 17 -25 15 -31
-10z"/>
<path d="M3662 3198 c-18 -18 -14 -38 8 -38 15 0 20 7 20 25 0 27 -9 32 -28
13z"/>
<path d="M4457 3115 c9 -19 18 -33 21 -31 4 5 -26 66 -33 66 -3 0 3 -16 12
-35z"/>
<path d="M874 3125 c-8 -19 0 -28 27 -30 15 -1 19 4 17 19 -4 25 -36 34 -44
11z"/>
<path d="M701 3104 c0 -11 3 -14 6 -6 3 7 2 16 -1 19 -3 4 -6 -2 -5 -13z"/>
<path d="M691 3064 c0 -11 3 -14 6 -6 3 7 2 16 -1 19 -3 4 -6 -2 -5 -13z"/>
<path d="M3995 2927 c-9 -67 -20 -129 -22 -137 -4 -13 -3 -13 5 0 11 17 47
248 40 255 -2 3 -13 -50 -23 -118z"/>
<path d="M947 3021 c-2 -10 -1 -25 4 -34 6 -10 4 -17 -6 -21 -8 -3 -15 -15
-15 -26 0 -18 3 -19 20 -10 23 12 35 50 26 85 -8 29 -22 33 -29 6z"/>
<path d="M1100 3031 c0 -5 7 -14 15 -21 18 -15 42 1 31 19 -8 13 -46 15 -46 2z"/>
<path d="M4220 3010 c12 -16 24 -30 26 -30 3 0 -4 14 -16 30 -12 17 -24 30
-26 30 -3 0 4 -13 16 -30z"/>
<path d="M4600 2990 c0 -13 5 -20 13 -17 6 2 12 10 12 17 0 7 -6 15 -12 18 -8
2 -13 -5 -13 -18z"/>
<path d="M2596 2934 c-23 -22 -20 -36 7 -32 14 2 23 11 25 26 4 26 -10 29 -32
6z"/>
<path d="M822 2911 c-15 -9 -5 -41 13 -41 8 0 17 5 21 11 9 15 -18 40 -34 30z"/>
<path d="M744 2872 c-14 -9 -25 -40 -16 -46 4 -2 17 0 29 5 15 5 20 14 16 28
-6 22 -12 25 -29 13z"/>
<path d="M1079 2847 c-22 -16 -12 -37 17 -37 26 0 32 21 11 38 -8 7 -17 7 -28
-1z"/>
<path d="M971 2824 c0 -11 3 -14 6 -6 3 7 2 16 -1 19 -3 4 -6 -2 -5 -13z"/>
<path d="M2391 2644 c0 -11 3 -14 6 -6 3 7 2 16 -1 19 -3 4 -6 -2 -5 -13z"/>
<path d="M2381 2604 c0 -11 3 -14 6 -6 3 7 2 16 -1 19 -3 4 -6 -2 -5 -13z"/>
<path d="M809 2575 c5 -11 17 -29 26 -40 l16 -20 -10 20 c-5 11 -17 29 -26 40
l-16 20 10 -20z"/>
<path d="M1967 2570 c-3 -10 0 -26 7 -34 10 -13 13 -13 30 -1 19 14 19 15 1
35 -23 25 -31 25 -38 0z"/>
<path d="M2350 2490 c-27 -113 -35 -131 -55 -124 -19 8 -19 -15 -1 -51 14 -26
15 -26 25 -7 6 12 11 31 11 44 0 13 11 65 25 117 14 52 24 99 22 105 -2 6 -14
-32 -27 -84z"/>
<path d="M4575 2540 c-3 -5 -1 -10 4 -10 6 0 11 5 11 10 0 6 -2 10 -4 10 -3 0
-8 -4 -11 -10z"/>
<path d="M1037 2494 c-12 -13 6 -34 29 -34 22 0 23 3 14 20 -10 19 -31 26 -43
14z"/>
<path d="M784 2409 c-10 -17 23 -46 38 -31 8 8 8 15 -2 27 -15 18 -26 19 -36
4z"/>
<path d="M925 2400 c5 -8 14 -22 22 -32 13 -14 12 -17 -4 -26 -22 -13 -14 -22
32 -38 l34 -11 -14 26 c-16 28 -83 106 -70 81z"/>
<path d="M1466 2383 c-11 -12 -6 -51 9 -63 10 -9 15 -9 15 -1 0 6 7 11 15 11
12 0 13 5 3 24 -11 26 -31 39 -42 29z"/>
<path d="M2863 2353 c-7 -2 -13 -14 -13 -24 0 -11 5 -17 10 -14 19 12 9 -40
-43 -220 -44 -150 -55 -180 -69 -177 -21 3 -24 -25 -4 -50 16 -21 36 -6 36 28
0 20 39 168 90 344 33 113 34 120 19 119 -8 0 -20 -3 -26 -6z"/>
<path d="M2432 2308 c-18 -18 -14 -38 8 -38 15 0 20 7 20 25 0 27 -9 32 -28
13z"/>
<path d="M2340 2281 c0 -16 30 -33 46 -27 13 5 14 9 4 21 -13 16 -50 21 -50 6z"/>
<path d="M1055 2220 c10 -11 20 -20 23 -20 3 0 -3 9 -13 20 -10 11 -20 20 -23
20 -3 0 3 -9 13 -20z"/>
<path d="M2330 2220 c0 -5 -7 -10 -16 -10 -29 0 -8 -25 24 -28 37 -4 45 20 12
38 -14 7 -20 7 -20 0z"/>
<path d="M2245 2184 c-16 -16 -16 -19 -1 -30 17 -12 11 -47 -55 -295 -6 -23
-16 -39 -29 -42 -23 -6 -26 -29 -6 -47 11 -8 12 -18 6 -36 -5 -13 -6 -24 -1
-24 4 0 13 17 19 38 17 57 102 405 105 426 3 26 -17 31 -38 10z"/>
<path d="M1080 2157 c0 -19 7 -40 15 -47 12 -10 15 -10 15 0 0 7 8 10 19 7 19
-5 19 -3 -3 31 -31 49 -46 52 -46 9z"/>
<path d="M1883 2173 c-21 -8 -15 -43 7 -43 15 0 20 7 20 25 0 25 -4 28 -27 18z"/>
<path d="M1802 2143 c2 -11 14 -19 31 -21 26 -3 28 -2 17 17 -13 26 -53 29
-48 4z"/>
<path d="M2384 2146 c-7 -18 1 -46 13 -46 4 0 15 5 23 10 11 7 12 14 4 27 -15
24 -33 28 -40 9z"/>
<path d="M1732 2074 c-18 -19 -8 -31 28 -36 36 -5 38 16 5 38 -17 10 -22 10
-33 -2z"/>
<path d="M1413 2049 c-6 -21 -7 -21 -19 -4 -8 11 -20 15 -30 11 -30 -11 4 -37
45 -33 29 2 37 7 39 25 4 29 -28 30 -35 1z"/>
<path d="M1663 2044 c-4 -10 -2 -19 5 -22 16 -5 15 -36 -3 -124 -24 -115 -25
-118 -41 -118 -13 0 -15 -6 -9 -27 4 -16 7 -55 7 -88 -1 -69 10 -54 26 35 17
90 54 314 56 335 1 25 -32 33 -41 9z"/>
<path d="M1076 1991 c-3 -5 -15 -7 -27 -4 -17 5 -20 2 -17 -13 2 -14 13 -20
41 -22 34 -3 37 -1 37 22 0 25 -22 36 -34 17z"/>
<path d="M1834 1964 c-8 -31 4 -45 34 -38 27 8 28 14 2 42 -26 28 -28 28 -36
-4z"/>
<path d="M2838 1857 c-6 -8 -22 -11 -35 -9 -26 5 -30 -9 -8 -28 9 -7 26 -9 45
-5 23 5 30 12 30 31 0 27 -13 31 -32 11z"/>
<path d="M2713 1790 c-24 -10 -31 -36 -12 -42 13 -4 6 -35 -48 -207 -26 -82
-41 -115 -54 -118 -23 -6 -31 -29 -14 -43 7 -6 11 -21 8 -33 -4 -22 -4 -22 12
-2 9 11 18 31 21 45 4 14 28 98 55 187 27 89 49 168 49 176 0 11 26 15 63 8 4
0 7 -14 7 -31 0 -31 6 -35 34 -24 23 9 20 17 -19 57 -36 38 -60 44 -102 27z"/>
<path d="M2040 1787 c0 -2 15 -16 33 -33 l32 -29 -29 33 c-28 30 -36 37 -36
29z"/>
<path d="M2286 1723 c-4 -5 -16 -8 -27 -8 -10 0 -19 -3 -19 -7 -1 -38 0 -39
38 -32 36 6 69 24 44 24 -7 0 -12 7 -12 15 0 16 -12 20 -24 8z"/>
<path d="M2895 1670 c21 -22 41 -40 44 -40 3 0 -13 18 -34 40 -21 22 -41 40
-44 40 -3 0 13 -18 34 -40z"/>
<path d="M3005 1571 c28 -29 59 -57 70 -63 23 -12 22 -12 -60 62 l-60 54 50
-53z"/>
<path d="M2370 1478 c31 -29 80 -73 110 -97 68 -54 13 -2 -91 87 -67 58 -69
59 -19 10z"/>
<path d="M1595 1468 c-9 -76 -15 -90 -31 -84 -18 7 -18 -23 -1 -45 18 -24 9
-107 -13 -119 -15 -8 -43 14 -170 141 -158 156 -217 201 -85 65 46 -47 75 -86
75 -99 0 -12 7 -31 15 -41 12 -16 17 -17 30 -6 13 11 20 9 45 -15 34 -33 38
-45 13 -45 -16 0 -16 -1 -2 -16 10 -9 36 -16 65 -17 l49 -2 7 80 c4 44 10 103
12 132 3 29 8 68 12 88 4 21 2 35 -4 35 -6 0 -13 -24 -17 -52z"/>
<path d="M2559 1245 c-4 -5 -21 -54 -39 -108 -26 -81 -36 -100 -57 -108 -24
-9 -24 -11 -10 -27 17 -19 6 -52 -18 -52 -7 0 -15 -6 -18 -12 -3 -10 -8 -9
-18 3 -8 9 -50 41 -93 70 -44 30 -91 65 -106 79 -42 39 -121 93 -127 87 -2 -3
11 -16 30 -29 26 -17 35 -29 34 -48 -2 -22 2 -25 29 -25 21 0 57 -18 117 -60
47 -33 86 -63 87 -67 0 -5 -10 -8 -22 -8 -22 -1 -23 -1 -4 -15 21 -16 93 -20
114 -6 15 9 114 299 109 321 -1 8 -5 11 -8 5z"/>
<path d="M1423 1182 c-38 -4 -47 -36 -12 -45 15 -4 19 -2 15 9 -3 8 -1 14 4
14 6 0 10 -4 10 -9 0 -8 60 -24 66 -18 2 2 -9 14 -24 28 -19 18 -36 24 -59 21z"/>
<path d="M2011 1115 c-6 -22 -11 -48 -11 -58 0 -11 -9 -21 -20 -24 -22 -6 -27
-32 -9 -50 14 -14 2 -53 -16 -53 -22 0 -26 -29 -5 -40 29 -16 40 -12 40 14 0
12 4 36 9 52 15 49 34 170 29 185 -3 8 -10 -4 -17 -26z"/>
<path d="M1654 1094 c38 -31 56 -54 56 -69 0 -31 25 -51 45 -35 11 9 21 6 50
-15 39 -30 43 -42 18 -47 -16 -4 -16 -5 2 -15 11 -6 35 -14 53 -18 51 -11 41
19 -21 58 -28 19 -66 48 -82 65 -16 18 -35 32 -40 32 -6 0 -33 20 -62 45 -28
25 -57 45 -63 45 -7 0 13 -21 44 -46z"/>
<path d="M3570 1090 c35 -32 70 -54 70 -46 0 2 -24 20 -52 40 -48 34 -50 34
-18 6z"/>
<path d="M2894 888 c-30 -65 -44 -84 -62 -86 -16 -3 -22 -8 -18 -19 4 -8 -3
-22 -16 -32 l-21 -18 21 -5 c28 -8 41 8 101 129 54 107 56 113 43 113 -5 0
-26 -37 -48 -82z"/>
<path d="M2567 943 c-15 -2 -32 -13 -38 -25 -12 -23 -11 -25 16 -30 14 -2 19
2 17 15 -3 18 13 23 23 7 3 -5 21 -10 38 -10 l32 1 -23 18 c-15 13 -18 21 -10
24 15 6 -14 6 -55 0z"/>
<path d="M3095 925 c22 -18 86 -53 70 -38 -5 6 -28 20 -50 32 -22 13 -31 15
-20 6z"/>
<path d="M1738 883 c-24 -6 -23 -40 2 -53 18 -10 20 -8 20 25 0 19 -1 34 -2
34 -2 -1 -11 -3 -20 -6z"/>
<path d="M2130 880 c0 -14 55 -40 82 -40 22 1 22 2 -7 25 -30 25 -75 34 -75
15z"/>
<path d="M2490 875 c7 -8 10 -21 7 -29 -9 -23 18 -40 33 -21 11 13 16 13 44
-2 l31 -16 -31 29 c-34 32 -105 65 -84 39z"/>
<path d="M1790 871 c0 -12 39 -36 73 -45 34 -8 35 4 2 32 -25 22 -75 30 -75
13z"/>
<path d="M2080 861 c0 -17 18 -31 39 -31 5 0 6 11 3 25 -5 30 -42 36 -42 6z"/>
<path d="M2407 818 c-13 -34 -24 -48 -38 -48 -22 0 -25 -20 -7 -38 10 -10 8
-14 -10 -18 -25 -7 -26 -12 -8 -37 17 -22 28 -10 50 57 9 26 21 57 27 68 6 10
9 29 7 41 -2 17 -7 11 -21 -25z"/>
<path d="M2034 815 c11 -8 23 -15 28 -15 4 0 8 -11 8 -24 0 -31 14 -40 30 -21
10 13 17 11 51 -8 44 -25 49 -37 17 -38 -22 0 -22 -1 -3 -8 11 -5 42 -11 69
-13 55 -7 53 -5 -47 49 -37 20 -72 44 -78 54 -5 11 -18 19 -29 19 -10 0 -22 5
-25 10 -3 6 -14 10 -23 10 -15 -1 -15 -2 2 -15z"/>
<path d="M1807 799 c7 -7 15 -10 18 -7 3 3 -2 9 -12 12 -14 6 -15 5 -6 -5z"/>
<path d="M2693 746 c-15 -18 -6 -26 29 -26 32 0 37 15 9 30 -24 12 -23 12 -38
-4z"/>
<path d="M3393 753 c-24 -9 -13 -24 15 -21 15 2 26 8 25 13 -2 12 -23 16 -40
8z"/>
<path d="M2923 742 c-15 -10 39 -35 64 -30 14 3 11 8 -14 21 -37 20 -34 19
-50 9z"/>
<path d="M2841 701 c-28 -40 -27 -56 3 -34 23 17 42 63 25 63 -4 0 -17 -13
-28 -29z"/>
<path d="M2545 659 c-8 -12 17 -21 47 -17 21 3 20 4 -9 15 -20 7 -35 8 -38 2z"/>
<path d="M2063 653 c-7 -2 -13 -13 -13 -24 0 -13 7 -19 23 -18 12 0 16 3 10 6
-7 2 -13 11 -13 18 0 7 6 16 13 18 6 3 8 5 2 5 -5 0 -16 -2 -22 -5z"/>
<path d="M2138 653 c7 -3 16 -2 19 1 4 3 -2 6 -13 5 -11 0 -14 -3 -6 -6z"/>
<path d="M2203 629 c21 -11 46 -19 55 -17 15 3 14 5 -3 15 -11 5 -36 13 -55
16 l-35 6 38 -20z"/>
<path d="M3230 630 c0 -13 30 -13 50 0 11 7 7 10 -17 10 -18 0 -33 -4 -33 -10z"/>
<path d="M2940 620 c-20 -6 -15 -8 25 -9 36 0 46 2 35 9 -17 11 -25 11 -60 0z"/>
<path d="M2680 585 l-23 -25 25 0 c26 0 63 31 51 43 -12 13 -30 7 -53 -18z"/>
</g>
</svg>
